<?xml version="1.0" encoding="UTF-8"?><svg id="Capa_1" xmlns="http://www.w3.org/2000/svg" viewBox="0 0 65.96 65.85"><defs><style>.cls-1{fill:none;stroke:aqua;stroke-miterlimit:10;}</style></defs><path class="cls-1" d="M.5,32.89c0-7.77,0-15.54,0-23.31,0-2.96,1.07-5.46,3.47-7.29,1.64-1.25,3.55-1.77,5.59-1.77,15.61,0,31.21-.02,46.82,0,5.32,0,9.04,3.71,9.05,9.06,.04,15.57,.03,31.14,0,46.72,0,3.65-1.58,6.45-4.89,8.17-1.3,.67-2.73,.87-4.16,.87-15.61,.02-31.21,.02-46.82,0-4.41,0-7.46-2.3-8.73-6.47-.27-.9-.33-1.83-.33-2.76,0-7.74,0-15.48,0-23.22Zm40.87-2.74c.55-.35,.89-.57,1.23-.79,5.37-3.52,4.62-10.8-.08-14-2.01-1.37-4.31-1.77-6.66-1.81-4.95-.07-9.9-.03-14.85-.08-.68,0-.73,.28-.73,.83,.01,11.37,.02,22.74-.01,34.11,0,.76,.28,.85,.92,.85,2.4-.03,4.79,0,7.19-.02,3.42-.03,6.85,.17,10.26-.29,4.04-.55,7.15-2.36,8.76-6.3,1.39-3.41,.67-7.65-1.77-10.08-1.14-1.14-2.51-1.89-4.25-2.42Z"/><path class="cls-1" d="M31.82,33.27c1.96,0,3.93-.08,5.88,.02,2.95,.14,5.07,1.97,5.39,4.49,.41,3.23-1.03,5.7-3.9,6.73-1.04,.37-2.12,.51-3.21,.52-3.43,.03-6.85,.02-10.28,.06-.62,0-.78-.19-.77-.79,.03-3.45,.03-6.9,0-10.35,0-.66,.24-.77,.81-.76,2.02,.02,4.05,0,6.07,0v.07Z"/><path class="cls-1" d="M31.45,18.17c1.74,0,3.48-.03,5.23,0,3.19,.06,4.8,1.58,4.99,4.68,.18,2.83-1.56,4.96-4.41,5.4-2.66,.41-5.34,.27-8.01,.29-1.21,.01-2.43-.01-3.64,0-.47,0-.66-.12-.65-.62,.02-3.04,.02-6.08,0-9.13,0-.58,.24-.65,.72-.65,1.93,.02,3.86,0,5.79,0h0Z"/></svg>