<?xml version="1.0" encoding="UTF-8"?><svg id="Capa_1" xmlns="http://www.w3.org/2000/svg" viewBox="0 0 55.13 62.96"><defs><style>.cls-1{fill:none;stroke:#ff0080;stroke-miterlimit:10;}</style></defs><path class="cls-1" d="M27.58,.52c8.69,0,17.38,.01,26.06-.02,.89,0,1.06,.21,.97,1.09-.45,4.48-.83,8.97-1.23,13.45-.48,5.41-.97,10.82-1.44,16.24-.4,4.52-.79,9.03-1.18,13.55-.32,3.65-.65,7.3-.95,10.95-.04,.46-.24,.63-.66,.74-7.01,1.95-14.02,3.92-21.02,5.88-.44,.12-.85,.07-1.28-.05-6.89-1.93-13.77-3.86-20.66-5.77-.53-.15-.8-.34-.86-.98-.7-8.14-1.45-16.27-2.17-24.4-.6-6.74-1.17-13.49-1.76-20.23C1.12,7.84,.85,4.72,.52,1.6c-.09-.83,.09-1.1,1-1.1,8.69,.04,17.38,.02,26.06,.02Zm.08,11.39c-5.45,0-10.9,.01-16.35-.02-.74,0-.97,.18-.89,.93,.17,1.51,.31,3.03,.33,4.55,.01,.88,.33,1.05,1.15,1.05,8.1-.05,16.19-.06,24.29-.08,1.16,0,1.17,0,1.09,1.18-.11,1.64-.28,3.28-.35,4.92-.03,.7-.26,.87-.94,.88-5.88,.04-11.77,.11-17.65,.18-2.02,.02-4.05,.06-6.07,.04-.65,0-.77,.21-.69,.82,.21,1.54,.39,3.08,.5,4.63,.05,.82,.32,1.08,1.17,1.08,7.35-.04,14.7-.03,22.05-.06,.76,0,.96,.2,.87,.94-.32,2.62-.61,5.24-.88,7.87-.05,.5-.19,.77-.71,.9-2.2,.56-4.39,1.15-6.58,1.75-.35,.1-.66,.06-1-.03-2.13-.58-4.26-1.17-6.4-1.71-.51-.13-.69-.36-.72-.88-.08-1.39-.25-2.78-.35-4.18-.05-.62-.22-.93-.95-.91-1.71,.06-3.43,.04-5.14,0-.64-.01-.88,.15-.81,.83,.3,3.18,.57,6.37,.83,9.56,.04,.53,.32,.72,.8,.86,4.26,1.17,8.51,2.36,12.76,3.56,.37,.11,.72,.11,1.1,0,4.25-1.2,8.5-2.39,12.76-3.56,.52-.14,.75-.35,.8-.93,.45-5.13,.95-10.26,1.41-15.4,.53-5.97,1.02-11.94,1.58-17.91,.08-.82-.15-.9-.84-.9-5.39,.02-10.77,.01-16.16,.01Z"/></svg>