<?xml version="1.0" encoding="UTF-8"?><svg id="Capa_1" xmlns="http://www.w3.org/2000/svg" viewBox="0 0 65.6 65.47"><defs><style>.cls-1{fill:#edff00;}</style></defs><path class="cls-1" d="M35.17,24.39c2.26,2.26,4.37,4.36,6.49,6.46,.31,.31,.19,.6,.11,.94-.5,2.18,.33,4.35,2.08,5.47,1.8,1.15,4.13,1.07,5.78-.19,1.84-1.42,2.5-3.86,1.6-5.93-.98-2.25-3.06-3.39-5.53-2.96-.57,.1-.91-.02-1.29-.41-2.03-2.06-4.09-4.1-6.14-6.14-.32-.32-.51-.57-.4-1.11,.73-3.52-2.17-6.56-5.73-5.98-.67,.11-1.02-.08-1.43-.5-2.08-2.1-4.17-4.19-6.28-6.26-.44-.43-.55-.67-.05-1.16,1.7-1.64,3.34-3.35,5.02-5.01,2.19-2.16,4.6-2.15,6.79,.05,9.25,9.23,18.49,18.47,27.73,27.71,2.27,2.27,2.26,4.6-.04,6.89-9.23,9.21-18.45,18.42-27.68,27.62-2.13,2.13-4.48,2.13-6.62,0C20.23,54.56,10.89,45.24,1.56,35.92c-2.09-2.09-2.07-4.54,.03-6.64,6.21-6.2,12.43-12.39,18.63-18.59,.45-.45,.68-.59,1.21-.05,2.07,2.15,4.2,4.25,6.31,6.36,.29,.29,.49,.52,.33,1.03-.69,2.33,.17,4.5,2.23,5.79,.34,.21,.46,.43,.46,.82,0,5.62-.01,11.25,0,16.87,0,.45-.2,.65-.54,.87-2.08,1.36-2.82,3.49-2.07,5.83,.67,2.09,2.69,3.53,4.9,3.48,2.29-.05,4.21-1.6,4.79-3.87,.5-1.94-.32-4.04-2.12-5.28-.36-.25-.57-.46-.57-.94,.02-5.66,.01-11.31,.01-17.2Z"/></svg>