<?xml version="1.0" encoding="UTF-8"?><svg id="Capa_1" xmlns="http://www.w3.org/2000/svg" viewBox="0 0 55.15 62.97"><defs><style>.cls-1{fill:none;stroke:#ff0080;stroke-miterlimit:10;}</style></defs><path class="cls-1" d="M27.57,.52c8.72,0,17.44,.01,26.16-.02,.81,0,.97,.21,.9,.99-.7,7.61-1.36,15.22-2.04,22.83-.66,7.36-1.32,14.73-1.98,22.09-.27,3.06-.55,6.13-.79,9.19-.04,.55-.21,.79-.77,.94-6.98,1.93-13.96,3.89-20.93,5.85-.41,.11-.79,.09-1.19-.02-6.92-1.94-13.83-3.88-20.75-5.8-.6-.16-.82-.41-.88-1.06-.57-6.75-1.19-13.49-1.78-20.24-.53-5.97-1.04-11.95-1.57-17.92C1.49,12.07,1.02,6.78,.52,1.5c-.07-.77,.07-1,.89-1,8.72,.03,17.44,.02,26.16,.02Zm.07,11.39c-5.39,0-10.78,.01-16.17-.02-.74,0-.96,.16-.86,.93,.22,1.69,.35,3.4,.49,5.1,.4,4.61,.8,9.22,1.18,13.84,.05,.65,.26,.88,.96,.87,3.11-.04,6.23-.02,9.34-.02,4.2,0,8.41,0,12.61,0,.51,0,.76,.02,.68,.69-.27,2.47-.47,4.95-.66,7.43-.04,.58-.2,.87-.81,1.02-2.11,.53-4.21,1.11-6.31,1.69-.38,.1-.71,.11-1.09,0-2.1-.58-4.2-1.16-6.31-1.69-.6-.15-.78-.43-.81-1.02-.08-1.43-.26-2.85-.35-4.27-.03-.51-.18-.69-.71-.68-1.84,.03-3.68,.03-5.51,0-.51,0-.67,.08-.62,.67,.32,3.18,.59,6.37,.84,9.56,.05,.58,.22,.86,.81,1.02,4.2,1.15,8.39,2.34,12.58,3.52,.37,.1,.71,.16,1.09,.05,4.28-1.21,8.56-2.42,12.85-3.61,.47-.13,.64-.36,.68-.83,.55-6.31,1.14-12.62,1.67-18.94,.14-1.68,.29-1.42-1.36-1.42-7.44-.01-14.89-.01-22.33,0-.66,0-1-.09-1.03-.87-.09-1.7-.26-3.41-.47-5.1-.11-.87,.17-1.07,1.02-1.06,7.97,.03,15.95,0,23.92,.04,.82,0,1.04-.22,1.08-1.02,.08-1.67,.25-3.35,.46-5.01,.1-.74-.13-.88-.82-.88-5.36,.03-10.71,.01-16.07,.01Z"/></svg>