<?xml version="1.0" encoding="UTF-8"?><svg id="Capa_1" xmlns="http://www.w3.org/2000/svg" viewBox="0 0 67.51 67.33"><defs><style>.cls-1{fill:none;stroke:aqua;stroke-miterlimit:10;}</style></defs><path class="cls-1" d="M33.8,66.83c-7.78,0-15.57,.02-23.35,0-4.88-.02-8.85-3.36-9.74-8.15-.15-.79-.2-1.61-.2-2.41-.01-15.01,0-30.02,0-45.02,0-4.47,1.79-7.87,5.92-9.85,1.25-.6,2.58-.88,3.98-.88,15.6,0,31.2-.01,46.8,0,5.35,0,9.78,4.41,9.79,9.74,.02,15.6,.02,31.2,0,46.79,0,5.45-4.38,9.75-9.93,9.77-7.75,.03-15.51,0-23.26,0Zm14.72-9.02c1.71,.01,3.09-.16,4.44-.58,3.25-1.01,5.55-2.97,6.12-6.45,.6-3.72-.38-6.88-3.65-9.12-2.25-1.54-4.8-2.49-7.26-3.6-.75-.34-1.44-.74-1.99-1.36-1.32-1.49-.71-3.76,1.17-4.38,1.73-.57,3.55,.13,4.71,1.92,.37,.57,.62,.59,1.12,.22,.62-.46,1.33-.82,1.93-1.3,.68-.55,2.02-.7,1.95-1.65-.06-.86-.96-1.62-1.63-2.32-.04-.04-.09-.09-.14-.13-2.61-2.34-5.74-2.75-9.01-2.17-3.19,.57-5.6,2.35-6.52,5.56-.96,3.36-.42,6.47,2.28,8.96,1.7,1.57,3.78,2.47,5.89,3.34,1.41,.58,2.84,1.15,4,2.17,1.57,1.37,1.33,3.56-.46,4.61-.68,.4-1.43,.6-2.22,.65-2.69,.17-4.79-.87-6.23-3.15-.31-.48-.53-.52-1.01-.23-1.33,.8-2.7,1.54-4.06,2.29-.3,.17-.63,.27-.33,.74,.55,.87,1.09,1.73,1.83,2.46,2.61,2.56,5.85,3.4,9.07,3.51Zm-14.33-18.6c0-4.31-.01-7.95,.01-11.58,0-.64-.15-.87-.82-.84-1.21,.05-2.43,.02-3.64,.01q-1.84,0-1.84,1.82c0,6.68,.01,13.36-.02,20.03,0,1.36-.25,2.71-1.77,3.28-1.73,.64-3.26,.2-4.42-1.23-.31-.39-.59-.8-.83-1.24-.23-.43-.46-.46-.87-.23-1.25,.7-2.5,1.4-3.78,2.03-.61,.3-.72,.53-.36,1.16,2.22,3.9,5.94,5.29,10.29,4.91,2.28-.2,4.37-.89,5.95-2.72,1.28-1.48,1.86-3.22,1.99-5.11,.25-3.66,.04-7.33,.11-10.31Z"/></svg>