<?xml version="1.0" encoding="UTF-8"?><svg id="Capa_1" xmlns="http://www.w3.org/2000/svg" xmlns:xlink="http://www.w3.org/1999/xlink" viewBox="0 0 76.59 81.67"><defs><style>.cls-1{filter:url(#outer-glow-12);}.cls-1,.cls-2{fill:none;stroke:#ff0080;stroke-miterlimit:10;}.cls-2{filter:url(#outer-glow-11);}</style><filter id="outer-glow-11" filterUnits="userSpaceOnUse"><feOffset dx="0" dy="0"/><feGaussianBlur result="blur" stdDeviation="5"/><feFlood flood-color="#ff0080" flood-opacity="1"/><feComposite in2="blur" operator="in"/><feComposite in="SourceGraphic"/></filter><filter id="outer-glow-12" filterUnits="userSpaceOnUse"><feOffset dx="0" dy="0"/><feGaussianBlur result="blur-2" stdDeviation="5"/><feFlood flood-color="#ff0080" flood-opacity="1"/><feComposite in2="blur-2" operator="in"/><feComposite in="SourceGraphic"/></filter></defs><path class="cls-2" d="M38.35,73.99c-7.78,0-15.57,.02-23.35,0-4.88-.02-8.85-3.36-9.74-8.15-.15-.79-.2-1.61-.2-2.41-.01-15.01,0-30.02,0-45.02,0-4.47,1.79-7.87,5.92-9.85,1.25-.6,2.58-.88,3.98-.88,15.6,0,31.2-.01,46.8,0,5.35,0,9.78,4.41,9.79,9.74,.02,15.6,.02,31.2,0,46.79,0,5.45-4.38,9.75-9.93,9.77-7.75,.03-15.51,0-23.26,0Zm14.72-9.02c1.71,.01,3.09-.16,4.44-.58,3.25-1.01,5.55-2.97,6.12-6.45,.6-3.72-.38-6.88-3.65-9.12-2.25-1.54-4.8-2.49-7.26-3.6-.75-.34-1.44-.74-1.99-1.36-1.32-1.49-.71-3.76,1.17-4.38,1.73-.57,3.55,.13,4.71,1.92,.37,.57,.62,.59,1.12,.22,.62-.46,1.33-.82,1.93-1.3,.68-.55,2.02-.7,1.95-1.65-.06-.86-.96-1.62-1.63-2.32-.04-.04-.09-.09-.14-.13-2.61-2.34-5.74-2.75-9.01-2.17-3.19,.57-5.6,2.35-6.52,5.56-.96,3.36-.42,6.47,2.28,8.96,1.7,1.57,3.78,2.47,5.89,3.34,1.41,.58,2.84,1.15,4,2.17,1.57,1.37,1.33,3.56-.46,4.61-.68,.4-1.43,.6-2.22,.65-2.69,.17-4.79-.87-6.23-3.15-.31-.48-.53-.52-1.01-.23-1.33,.8-2.7,1.54-4.06,2.29-.3,.17-.63,.27-.33,.74,.55,.87,1.09,1.73,1.83,2.46,2.61,2.56,5.85,3.4,9.07,3.51Zm-14.33-18.6c0-4.31-.01-7.95,.01-11.58,0-.64-.15-.87-.82-.84-1.21,.05-2.43,.02-3.64,.01q-1.84,0-1.84,1.82c0,6.68,.01,13.36-.02,20.03,0,1.36-.25,2.71-1.77,3.28-1.73,.64-3.26,.2-4.42-1.23-.31-.39-.59-.8-.83-1.24-.23-.43-.46-.46-.87-.23-1.25,.7-2.5,1.4-3.78,2.03-.61,.3-.72,.53-.36,1.16,2.22,3.9,5.94,5.29,10.29,4.91,2.28-.2,4.37-.89,5.95-2.72,1.28-1.48,1.86-3.22,1.99-5.11,.25-3.66,.04-7.33,.11-10.31Z"/><path class="cls-1" d="M105.73,62.38c-.04-2.75,.39-5.45,1.03-8.11,.16-.68,.01-.92-.64-1.12-3.8-1.17-7.41-2.74-10.54-5.25-1.44-1.15-2.71-2.47-3.54-4.16-1.1-2.25-.98-4.44,.32-6.57,1.4-2.29,3.49-3.85,5.77-5.19,2.51-1.47,5.19-2.54,7.98-3.34,.72-.21,.84-.51,.68-1.19-.91-3.83-1.38-7.7-.87-11.64,.12-.96,.34-1.9,.65-2.81,1.44-4.23,4.6-5.98,8.98-4.99,3.83,.87,7.04,2.92,10.06,5.31,.76,.6,1.54,1.18,2.19,1.89,.64,.7,1.03,.53,1.64-.04,2.57-2.42,5.38-4.53,8.6-6.02,1.67-.78,3.4-1.4,5.27-1.43,3.4-.06,5.55,1.4,6.87,4.54,1.07,2.55,1.27,5.24,1.19,7.95-.07,2.48-.42,4.95-1.02,7.36-.16,.65-.02,.89,.64,1.09,3.56,1.07,6.97,2.49,10.01,4.67,1.45,1.04,2.75,2.24,3.71,3.76,1.65,2.61,1.49,5.18-.24,7.67-1.83,2.63-4.43,4.32-7.22,5.75-1.99,1.02-4.08,1.85-6.23,2.48-.52,.15-.65,.35-.52,.92,.73,3.13,1.13,6.29,.98,9.51-.08,1.81-.36,3.59-.98,5.29-1.56,4.25-4.8,5.96-9.24,4.87-3.88-.95-7.08-3.13-10.11-5.62-.65-.53-1.29-1.08-1.88-1.68-.43-.44-.69-.41-1.13,0-2.31,2.19-4.84,4.1-7.68,5.57-2.23,1.15-4.56,2.03-7.11,2.01-2.73-.01-4.77-1.24-6.06-3.65-1.31-2.46-1.61-5.13-1.56-7.86Zm22.85-33.59c-1.96-.1-3.94,.16-5.93,.17-.62,0-1.02,.25-1.37,.77-2.22,3.34-4.2,6.82-6.01,10.4-.25,.5-.24,.89,0,1.39,1.8,3.62,3.83,7.1,6.07,10.47,.33,.5,.68,.68,1.27,.72,3.95,.22,7.9,.16,11.85-.01,.67-.03,1.07-.24,1.43-.8,2.22-3.42,4.25-6.94,6.07-10.58,.21-.42,.17-.74-.03-1.12-1.87-3.62-3.89-7.14-6.13-10.54-.31-.46-.68-.68-1.23-.68-1.99,0-3.97-.26-6.01-.17Zm-21.08,2.72c-.09,.02-.19,.03-.27,.05-3.96,1.19-7.75,2.72-10.85,5.55-2.52,2.3-2.57,4.65-.21,7.09,.04,.04,.09,.09,.13,.13,3.05,3.02,6.88,4.6,10.87,5.89,.51,.17,.71-.04,.86-.52,.9-2.84,1.99-5.61,3.22-8.32,.13-.29,.24-.58,.1-.89-1.27-2.8-2.38-5.66-3.33-8.58-.08-.25-.18-.47-.51-.41Zm1.34,30.99c0,1.97,.15,3.91,.94,5.74,.86,1.99,2.24,2.79,4.38,2.5,.89-.12,1.77-.31,2.62-.64,3.55-1.34,6.52-3.56,9.29-6.1,.34-.31,.4-.51,.05-.88-2.06-2.25-3.97-4.61-5.74-7.09-.2-.27-.42-.4-.77-.44-2.97-.28-5.93-.63-8.85-1.27-.54-.12-.84-.02-.98,.62-.55,2.49-.95,4.99-.95,7.55Zm39.55-.51c0-2.43-.36-4.82-.87-7.19-.11-.5-.26-.79-.85-.65-2.91,.69-5.87,1.07-8.83,1.38-.37,.04-.7,.1-.95,.46-1.72,2.48-3.56,4.86-5.59,7.1-.32,.36-.31,.59,.06,.9,.96,.79,1.85,1.66,2.83,2.42,2.5,1.93,5.13,3.63,8.29,4.27,2.4,.49,3.9-.28,4.88-2.5,.87-1.97,1.03-4.07,1.03-6.19ZM108.86,18.86c-.03,2.86,.43,5.42,.96,7.98,.12,.57,.38,.77,.97,.63,2.76-.64,5.55-1.07,8.37-1.3,.64-.05,1.06-.34,1.43-.87,1.41-2.01,2.94-3.93,4.59-5.75q1.27-1.4-.19-2.68c-.16-.14-.32-.29-.49-.43-2.72-2.25-5.58-4.27-9.04-5.24-3.42-.97-5.4,.2-6.18,3.65-.32,1.4-.47,2.81-.41,4.01Zm39.38,.64c0-2.05-.12-4.1-.92-6.03-.9-2.18-2.34-2.97-4.67-2.57-.64,.11-1.28,.29-1.89,.51-3.58,1.3-6.49,3.61-9.3,6.09-.59,.52-.53,.89-.03,1.41,1.89,1.99,3.56,4.15,5.13,6.39,.4,.57,.88,.82,1.53,.88,2.73,.24,5.43,.64,8.09,1.28,.83,.2,1.09-.11,1.23-.86,.44-2.35,.83-4.7,.82-7.11Zm14.52,21.25c-.15-1.63-1.12-2.82-2.31-3.85-3.05-2.64-6.7-4.1-10.49-5.29-.54-.17-.71,.09-.85,.53-.88,2.75-1.95,5.43-3.17,8.04-.21,.44-.16,.79,.04,1.22,1.23,2.61,2.34,5.27,3.22,8.02,.22,.67,.53,.79,1.15,.58,1.74-.59,3.45-1.23,5.1-2.05,2.12-1.06,4.15-2.27,5.76-4.05,.81-.89,1.44-1.87,1.54-3.16Zm-23.33,11.44c2.37-.2,4.44-.61,6.5-1.03,.5-.1,.43-.45,.31-.8-.67-1.96-1.39-3.9-2.33-5.92-1.43,2.63-2.84,5.12-4.48,7.75Zm-21.67,.08c-1.58-2.57-3.06-5.04-4.48-7.76-.93,2.14-1.63,4.12-2.3,6.11-.16,.48,.09,.62,.46,.69,2.04,.38,4.07,.76,6.31,.95Zm21.77-22.77c1.4,2.45,2.72,4.78,4.07,7.1,.33,.57,.49,.08,.58-.17,.58-1.47,1.16-2.94,1.69-4.42,.48-1.34,.47-1.38-.94-1.66-1.75-.35-3.5-.7-5.4-.85Zm-10.95,26.42s0,0,0,0c-1.18,0-2.36,0-3.53,0-.2,0-.46-.08-.58,.15-.1,.2,.08,.35,.19,.48,1.21,1.45,2.43,2.9,3.63,4.35,.29,.35,.49,.33,.79-.01,1.21-1.38,2.37-2.78,3.46-4.25,.12-.16,.36-.32,.24-.56-.14-.27-.44-.17-.67-.17-1.18-.01-2.36,0-3.53,0Zm-3.66-30.14c.62-.04,1.11-.08,1.61-.09,1.86-.01,3.72-.1,5.57,.09,.23,.02,.53,.12,.68-.15,.11-.19-.08-.35-.19-.48-1.16-1.49-2.35-2.95-3.63-4.35-.31-.34-.51-.25-.74,.03-1.19,1.42-2.39,2.84-3.58,4.27-.13,.15-.36,.31-.2,.56,.14,.21,.39,.12,.48,.13Zm-11.62,11.34c1.39-2.67,2.83-5.08,4.39-7.63-2.29,.21-4.32,.61-6.35,1.02-.36,.07-.41,.28-.3,.62,.64,1.97,1.33,3.92,2.26,5.98Z"/></svg>