<?xml version="1.0" encoding="UTF-8"?><svg id="Capa_1" xmlns="http://www.w3.org/2000/svg" viewBox="0 0 76.59 81.67"><defs><style>.cls-1{fill:none;stroke:aqua;stroke-miterlimit:10;}</style></defs><path class="cls-1" d="m48.3,13.76c-1.67-2.5-7.22-9.46-9.26-11.99-.39-.48-1.12-.48-1.5,0-2.03,2.53-7.59,9.49-9.26,11.99-2.05,3.08-8.62,12.64-8.62,26.69s9.81,23.66,16.48,30.32c.03.03.04.06.05.1l.76,9.05c0,.07.06.13.14.15l1.18.19s.03,0,.05,0l1.18-.19c.07-.01.13-.07.14-.15l.76-9.05s.02-.07.05-.1c6.67-6.67,16.48-16.3,16.48-30.32s-6.57-23.61-8.62-26.69Zm-10.12,56.17l-1.77-1.57s-.06-.08-.05-.13l1.77-36.34c0-.21.31-.21.32,0l1.77,36.34s-.02.1-.05.13l-1.77,1.57c-.06.05-.15.05-.22,0Z"/></svg>