<?xml version="1.0" encoding="UTF-8"?><svg id="Capa_1" xmlns="http://www.w3.org/2000/svg" viewBox="0 0 55.58 62.6"><defs><style>.cls-1{fill:#ff0080;}</style></defs><path class="cls-1" d="M55.56,31.33c0,4.23-.06,8.45,.02,12.68,.05,2.44-.92,4.08-3.05,5.3-7.19,4.1-14.33,8.29-21.48,12.45-1.95,1.14-3.86,1.14-5.81-.04-2.32-1.4-4.67-2.74-7-4.12-.31-.18-.78-.34-.77-.73,.02-.42,.53-.46,.86-.59,.88-.32,1.73-.72,2.53-1.18,.49-.28,.92-.25,1.39,.04,1.6,.97,3.22,1.89,4.8,2.88,.72,.45,1.29,.47,2.05,.03,7.17-4.19,14.37-8.34,21.57-12.48,.57-.33,.74-.68,.74-1.32-.02-8.61-.02-17.22,0-25.83,0-.63-.17-.99-.73-1.32-7.22-4.18-14.42-8.38-21.62-12.59-.61-.36-1.14-.48-1.81-.09-7.43,4.3-14.88,8.58-22.33,12.86-.55,.32-.78,.7-.78,1.34,.01,8.48,.01,16.97,0,25.45,0,.64,.24,1.03,.79,1.34,1.9,1.07,3.77,2.18,5.66,3.26,.71,.4,1.49,.64,2.29,.76,1.53,.23,2.9-.86,3.15-2.5,.06-.4,.05-.81,.05-1.21,0-8.2,0-16.41,0-24.61,0-1.27,.39-1.67,1.65-1.69,.72-.01,1.43,.01,2.15,0,.6-.02,.85,.28,.88,.84,0,.19,0,.37,0,.56,0,8.45,0,16.91,0,25.36,0,1.71-.2,3.36-1.15,4.82-1.06,1.62-2.67,2.35-4.54,2.59-2.36,.3-4.51-.33-6.54-1.45-1.96-1.08-3.92-2.18-5.85-3.3C.91,47.78,0,46.25,0,44.14,.03,35.59,.04,27.05,0,18.5c0-2.16,.91-3.72,2.72-4.76C10.3,9.39,17.91,5.07,25.5,.73c1.83-1.05,3.62-.93,5.4,.1,7.38,4.27,14.75,8.55,22.14,12.8,1.82,1.05,2.54,2.61,2.53,4.64-.03,4.35,0,8.7,0,13.05Z"/><path class="cls-1" d="M35.23,44.24c-2.8,.07-5.54-.21-8.07-1.54-2.7-1.42-4.03-3.68-4.03-6.73,0-.69,.26-1.06,.98-1.05,.75,0,1.49,.02,2.24,0,.55-.02,.96,.22,1.03,.74,.42,3.33,2.71,4.36,5.63,4.59,2.39,.19,4.79,.23,7.1-.59,1.37-.49,2.01-1.51,2.09-2.9,.05-.95-.47-1.57-1.29-1.97-1.51-.74-3.15-.95-4.78-1.16-2.59-.33-5.21-.48-7.71-1.3-2.24-.73-3.95-2.03-4.41-4.47-.68-3.58,.96-6.65,4.41-7.88,4.41-1.58,8.89-1.49,13.2,.34,2.76,1.17,3.92,3.58,4.2,6.46,.06,.64-.26,.91-.88,.91-.84,0-1.68-.01-2.52,0-.47,0-.79-.17-.9-.64-.62-2.69-2.44-3.79-5.06-3.96-2-.13-3.98-.17-5.91,.42-.51,.16-.97,.41-1.35,.8-1.34,1.39-.95,3.24,.87,3.82,2.14,.69,4.39,.83,6.6,1.18,2,.32,3.99,.65,5.91,1.31,4.46,1.53,5.71,7.43,2.3,10.72-2.1,2.03-4.75,2.6-7.51,2.88-.71,.07-1.43,.01-2.15,.01Z"/></svg>