<?xml version="1.0" encoding="UTF-8"?><svg id="Capa_1" xmlns="http://www.w3.org/2000/svg" xmlns:xlink="http://www.w3.org/1999/xlink" viewBox="0 0 56.58 63.6"><defs><style>.cls-1{fill:none;stroke:aqua;stroke-linecap:round;stroke-linejoin:round;}</style><filter id="outer-glow-13" filterUnits="userSpaceOnUse"><feOffset dx="0" dy="0"/><feGaussianBlur result="blur" stdDeviation="5"/><feFlood flood-color="aqua" flood-opacity="1"/><feComposite in2="blur" operator="in"/><feComposite in="SourceGraphic"/></filter></defs><path class="cls-1" d="m35.53,41.5c2.74-.26,4.89-2.16,6.54-4.2-1.71,9.76-13.25,13.78-21.41,9-6.21-4.79-12.88-13.15-19.73-3.74,1.33-10.71,15.77-14.01,23.46-7.6,3.32,2.81,6.17,7.35,11.14,6.54Z"/><path class="cls-1" d="m21.52,21.89c-2.88.17-5.31,2.06-6.96,4.27,1.4-10.43,14.92-13.82,22.77-8.15,5.37,5.54,12.21,11.26,18.34,2.91-1.36,8.69-11.26,13.21-19.14,9.97-5.84-1.58-8.5-9.31-15.01-9.01Z"/></svg>